<svg width="119" height="24" viewBox="0 0 119 24" fill="none" xmlns="http://www.w3.org/2000/svg">
<path d="M38.4288 19.2101C37.83 19.2424 37.2377 19.0733 36.7475 18.7301C36.3316 18.424 36.0944 17.9339 36.1132 17.4201V8.15013C36.1033 8.0706 36.1308 7.99097 36.1879 7.93431C36.2449 7.87764 36.3251 7.85028 36.4052 7.86013H38.0965C38.2878 7.86013 38.3784 7.96013 38.3784 8.15013V16.7001C38.3784 17.0801 38.5496 17.2701 38.902 17.2701C39.0513 17.2762 39.2008 17.2594 39.345 17.2201C39.5463 17.2201 39.6571 17.2801 39.6671 17.4601L39.8181 18.7101C39.8328 18.7839 39.8147 18.8603 39.7683 18.9197C39.722 18.9792 39.6521 19.0158 39.5765 19.0201C39.206 19.1417 38.8189 19.2058 38.4288 19.2101Z" fill="#696871"/>
<path fill-rule="evenodd" clip-rule="evenodd" d="M41.9023 18.1401C43.6553 19.5788 46.1899 19.5788 47.9429 18.1401V18.1301C49.4592 16.5595 49.4592 14.0807 47.9429 12.5101C46.187 11.0793 43.6582 11.0793 41.9023 12.5101C40.3475 14.0691 40.3475 16.5811 41.9023 18.1401ZM46.3722 16.82C45.5551 17.5552 44.3099 17.5552 43.4929 16.82C42.7548 15.9771 42.7548 14.7229 43.4929 13.88C44.3099 13.1448 45.5551 13.1448 46.3722 13.88C47.1103 14.7229 47.1103 15.9771 46.3722 16.82Z" fill="#696871"/>
<path fill-rule="evenodd" clip-rule="evenodd" d="M58.6751 11.98C58.6751 11.79 58.5845 11.69 58.3932 11.69L56.722 11.7C56.6436 11.6934 56.5663 11.7223 56.5117 11.7785C56.457 11.8347 56.4307 11.9124 56.4401 11.99V12.15C55.8257 11.6833 55.0689 11.4397 54.2956 11.46C53.2349 11.4224 52.2039 11.8119 51.4364 12.54C49.9276 14.0904 49.9276 16.5496 51.4364 18.1C52.2004 18.8348 53.2329 19.2284 54.2956 19.19C55.0471 19.2112 55.7841 18.9824 56.3897 18.54V19.17C56.4103 19.6333 56.2393 20.0849 55.9166 20.42C55.5633 20.7402 55.0953 20.906 54.6178 20.88C54.226 20.8878 53.8385 20.7985 53.4902 20.62C53.2045 20.4665 52.9858 20.2137 52.8761 19.91C52.8206 19.775 52.6905 19.685 52.5438 19.68H50.8525C50.5806 19.68 50.5806 19.77 50.5806 19.97C50.7223 20.7894 51.1999 21.5137 51.8995 21.97C52.7101 22.4919 53.6625 22.7537 54.6279 22.72C55.6967 22.7668 56.7436 22.4095 57.5576 21.72C58.3003 21.0739 58.7108 20.13 58.6751 19.15V11.98ZM55.8662 16.82C55.5172 17.21 55.012 17.4261 54.4869 17.41C53.9562 17.4252 53.4451 17.2097 53.0875 16.82C52.7264 16.4082 52.5357 15.8758 52.5539 15.33C52.5317 14.7788 52.7267 14.2407 53.0975 13.83C53.4544 13.4391 53.966 13.2234 54.497 13.24C55.0172 13.2229 55.5185 13.4352 55.8662 13.82C56.5546 14.7031 56.5546 15.9369 55.8662 16.82Z" fill="#696871"/>
<path fill-rule="evenodd" clip-rule="evenodd" d="M61.3229 18.1401C63.0788 19.5709 65.6076 19.5709 67.3635 18.1401V18.1301C68.8798 16.5595 68.8798 14.0807 67.3635 12.5101C65.6062 11.0832 63.0802 11.0832 61.3229 12.5101C59.8053 14.0841 59.8053 16.5661 61.3229 18.1401ZM64.3533 17.37C63.8154 17.3865 63.2934 17.1884 62.9035 16.82C62.1783 15.9724 62.1783 14.7277 62.9035 13.88C63.2934 13.5117 63.8154 13.3136 64.3533 13.33C64.8876 13.3163 65.4056 13.5142 65.793 13.88C66.5182 14.7277 66.5182 15.9724 65.793 16.82C65.4056 17.1859 64.8876 17.3838 64.3533 17.37Z" fill="#696871"/>
<path fill-rule="evenodd" clip-rule="evenodd" d="M70.2128 9.99021C70.7632 10.4688 71.5853 10.4688 72.1357 9.99021C72.3796 9.76161 72.5178 9.44327 72.5178 9.11021C72.5178 8.77714 72.3796 8.45881 72.1357 8.23021C71.5805 7.76441 70.768 7.76441 70.2128 8.23021C69.9689 8.45881 69.8307 8.77714 69.8307 9.11021C69.8307 9.44327 69.9689 9.76161 70.2128 9.99021ZM70.666 18.7302C71.1575 19.0705 71.7488 19.2394 72.3473 19.2102C72.7408 19.2066 73.1313 19.1425 73.5051 19.0202C73.5807 19.0159 73.6506 18.9792 73.6969 18.9198C73.7432 18.8604 73.7614 18.7839 73.7467 18.7102L73.5957 17.4602C73.5856 17.2802 73.4749 17.2202 73.2735 17.2202C73.1258 17.2588 72.9732 17.2757 72.8205 17.2702C72.4782 17.2702 72.307 17.0802 72.307 16.7002V11.9802C72.307 11.7902 72.2164 11.6902 72.0251 11.6902H70.3338C70.2537 11.6804 70.1735 11.7077 70.1165 11.7644C70.0594 11.8211 70.0319 11.9007 70.0418 11.9802V17.4202C70.0241 17.9315 70.2567 18.4197 70.666 18.7302Z" fill="#696871"/>
<path fill-rule="evenodd" clip-rule="evenodd" d="M82.8477 12.5301C82.0746 11.7979 81.0357 11.4082 79.9683 11.4501C79.0363 11.4299 78.137 11.7916 77.4816 12.4501C77.1359 11.7792 76.4151 11.3837 75.6593 11.4501C75.2888 11.4434 74.9202 11.5044 74.572 11.6301C74.4261 11.6722 74.3297 11.8097 74.3404 11.9601V13.1401C74.3404 13.3001 74.4512 13.3801 74.6727 13.3801H75.0049C75.1686 13.3562 75.3341 13.4107 75.4511 13.5269C75.5681 13.6431 75.6229 13.8075 75.5989 13.9701V22.1701C75.5843 22.2479 75.6092 22.3279 75.6656 22.3839C75.7219 22.4399 75.8024 22.4647 75.8808 22.4501H77.5722C77.7635 22.4501 77.8641 22.3601 77.8641 22.1701V18.5601C78.4756 18.9985 79.2144 19.2268 79.9683 19.2101C81.0377 19.2528 82.0782 18.859 82.8477 18.1201C84.3248 16.5456 84.3248 14.1047 82.8477 12.5301ZM79.7871 17.4097C79.2624 17.4097 78.7605 17.1967 78.3978 16.8202C78.034 16.3941 77.8437 15.8484 77.8642 15.2902C77.8407 14.7315 78.0314 14.1847 78.3978 13.7602C78.7605 13.3836 79.2624 13.1707 79.7871 13.1707C80.3118 13.1707 80.8137 13.3836 81.1765 13.7602C81.5575 14.1774 81.7565 14.7275 81.7302 15.2902C81.7533 15.8523 81.5546 16.4013 81.1765 16.8202C80.8137 17.1967 80.3118 17.4097 79.7871 17.4097Z" fill="#696871"/>
<path d="M88.7072 19.2102C87.8034 19.2471 86.9072 19.0324 86.1198 18.5902C85.4797 18.2073 85.0499 17.5559 84.9519 16.8202C84.9519 16.6202 85.0224 16.5202 85.2439 16.5202H86.7238C86.8674 16.5258 86.9957 16.6107 87.0561 16.7402C87.2675 17.2802 87.8212 17.5502 88.7072 17.5502C89.0162 17.5642 89.324 17.5024 89.6032 17.3702C89.7996 17.2821 89.9312 17.0938 89.9455 16.8802C89.9455 16.6202 89.7844 16.4402 89.4623 16.3202C89.0801 16.1939 88.6851 16.11 88.2843 16.0702C87.8096 16.0168 87.3388 15.9333 86.8749 15.8202C86.4236 15.7188 86.0134 15.4854 85.6969 15.1502C85.3202 14.6897 85.1529 14.0945 85.235 13.5067C85.3171 12.919 85.6412 12.3915 86.1298 12.0502C86.8555 11.591 87.7069 11.3674 88.5662 11.4102C89.3982 11.3823 90.2214 11.5867 90.9422 12.0002C91.5306 12.3312 91.9374 12.9079 92.0497 13.5702C92.0497 13.7702 91.9591 13.8702 91.7779 13.8702H90.2878C90.1594 13.8778 90.0395 13.8063 89.9858 13.6902C89.8862 13.4534 89.6988 13.2636 89.4623 13.1602C89.1955 13.0215 88.8975 12.9527 88.5964 12.9602C88.3013 12.9443 88.0069 13.0027 87.7407 13.1302C87.5488 13.2037 87.4212 13.3859 87.4185 13.5902C87.4317 13.8709 87.6277 14.1103 87.9018 14.1802C88.2884 14.3249 88.6903 14.4256 89.0998 14.4802C89.5707 14.5417 90.0378 14.6285 90.4993 14.7402C90.9505 14.8416 91.3607 15.075 91.6772 15.4102C92.0191 15.7832 92.1967 16.2764 92.1705 16.7802C92.1882 17.4834 91.8326 18.1441 91.2342 18.5202C90.482 18.9998 89.6005 19.2405 88.7072 19.2102Z" fill="#696871"/>
<path d="M102.812 18.7102C102.824 18.7819 102.806 18.8552 102.762 18.9136C102.718 18.9719 102.653 19.0103 102.581 19.0202C102.213 19.1394 101.83 19.2034 101.443 19.2102C100.665 19.2902 99.901 18.9603 99.4294 18.3402C98.7182 18.9475 97.7987 19.2591 96.8621 19.2102C95.9828 19.2504 95.1272 18.9199 94.5063 18.3002C93.8901 17.6513 93.5666 16.7811 93.6102 15.8902V11.9802C93.6102 11.7902 93.7008 11.6902 93.8921 11.6902H95.5835C95.7748 11.6902 95.8654 11.7902 95.8654 11.9802V15.5902C95.847 16.0399 96.0018 16.4798 96.2983 16.8202C96.5977 17.1357 97.0199 17.3071 97.4561 17.2902C97.9018 17.3096 98.3368 17.1511 98.6643 16.8502C98.9744 16.5328 99.1384 16.102 99.1173 15.6602V11.9802C99.1173 11.7902 99.2079 11.6902 99.3992 11.6902H101.111C101.302 11.6902 101.393 11.7902 101.393 11.9802V16.6902C101.393 17.0802 101.564 17.2702 101.896 17.2702C102.052 17.2762 102.208 17.2593 102.359 17.2202C102.436 17.1987 102.519 17.2135 102.584 17.2603C102.649 17.307 102.688 17.3807 102.691 17.4602L102.812 18.7102Z" fill="#696871"/>
<path d="M118.81 18.7102C118.828 18.7827 118.813 18.8595 118.768 18.9195C118.723 18.9795 118.654 19.0164 118.578 19.0202C118.204 19.1411 117.814 19.2051 117.421 19.2102C116.822 19.2409 116.23 19.0719 115.739 18.7302C115.308 18.4329 115.055 17.9414 115.065 17.4202V15.0702C115.086 14.6218 114.935 14.1821 114.642 13.8402C114.356 13.5237 113.942 13.3512 113.514 13.3702C113.129 13.3557 112.757 13.5179 112.508 13.8102C112.242 14.1453 112.106 14.564 112.125 14.9902V18.6802C112.125 18.8702 112.034 18.9702 111.843 18.9702H110.142C110.062 18.9801 109.981 18.9527 109.924 18.896C109.867 18.8394 109.84 18.7597 109.85 18.6802V15.0702C109.872 14.6267 109.732 14.1901 109.457 13.8402C109.209 13.5426 108.84 13.3704 108.45 13.3702C108.035 13.3535 107.632 13.5136 107.343 13.8102C107.055 14.1346 106.907 14.5583 106.93 14.9902V18.6802C106.94 18.7597 106.912 18.8394 106.855 18.896C106.798 18.9527 106.718 18.9801 106.638 18.9702H104.997C104.806 18.9702 104.715 18.8702 104.715 18.6802V13.9702C104.739 13.8076 104.684 13.6432 104.567 13.527C104.45 13.4108 104.285 13.3563 104.121 13.3802H103.789C103.567 13.3802 103.457 13.3002 103.457 13.1402V11.9602C103.446 11.8097 103.542 11.6722 103.688 11.6302C104.036 11.5045 104.405 11.4434 104.776 11.4502C105.501 11.3888 106.198 11.7466 106.568 12.3702C107.254 11.7238 108.181 11.3905 109.125 11.4502C110.045 11.4056 110.931 11.7993 111.511 12.5102C112.186 11.7818 113.154 11.3927 114.149 11.4502C115.037 11.4089 115.902 11.7389 116.535 12.3602C117.153 13.0078 117.477 13.8789 117.431 14.7702V16.7002C117.431 17.0802 117.602 17.2702 117.924 17.2702C118.08 17.2774 118.236 17.2606 118.387 17.2202C118.595 17.2202 118.706 17.3002 118.719 17.4602L118.81 18.7102Z" fill="#696871"/>
<path fill-rule="evenodd" clip-rule="evenodd" d="M0.755012 10.3901C2.28338 4.28843 7.79977 0.00537109 14.1301 0.00537109C20.4604 0.00537109 25.9768 4.28843 27.5051 10.3901H26.297C24.259 10.3603 22.2627 10.9653 20.5886 12.1201C20.4919 12.1896 20.3911 12.253 20.2865 12.3101H20.1456C20.041 12.253 19.9402 12.1896 19.8435 12.1201C16.3888 9.81261 11.8714 9.81261 8.4166 12.1201C8.31998 12.1896 8.21911 12.253 8.11457 12.3101H7.97362C7.86908 12.253 7.7682 12.1896 7.67158 12.1201C5.99744 10.9653 4.00119 10.3603 1.96315 10.3901H0.755012ZM24.1223 16.6601C24.7425 16.1803 25.5112 15.9294 26.297 15.9501H27.9179V12.7401H26.297C24.9129 12.7235 23.5604 13.1514 22.441 13.9601C21.148 14.907 19.3848 14.907 18.0917 13.9601C15.7409 12.3347 12.6199 12.3347 10.2691 13.9601C8.97601 14.907 7.21283 14.907 5.91978 13.9601C4.78655 13.141 3.41471 12.7126 2.01348 12.7401H0.342224V15.9501H1.96314C2.74894 15.9294 3.51759 16.1803 4.13778 16.6601C6.48453 18.2867 9.60364 18.2867 11.9504 16.6601C12.5714 16.1818 13.3395 15.931 14.125 15.9501C14.9111 15.9277 15.6803 16.1789 16.2997 16.6601C18.6505 18.2855 21.7715 18.2855 24.1223 16.6601ZM26.297 21.6901C25.5112 21.6694 24.7425 21.9203 24.1223 22.4001C21.7715 24.0255 18.6505 24.0255 16.2997 22.4001C15.6803 21.9189 14.9111 21.6677 14.125 21.6901C13.3395 21.671 12.5714 21.9218 11.9504 22.4001C9.60364 24.0267 6.48453 24.0267 4.13778 22.4001C3.51759 21.9203 2.74894 21.6694 1.96314 21.6901H0.342224V18.4801H2.01348C3.41471 18.4526 4.78655 18.881 5.91978 19.7001C7.21283 20.647 8.97601 20.647 10.2691 19.7001C12.6199 18.0747 15.7409 18.0747 18.0917 19.7001C19.3848 20.647 21.148 20.647 22.441 19.7001C23.5604 18.8914 24.9129 18.4635 26.297 18.4801H27.9179V21.6901H26.297Z" fill="#696871"/>
</svg>
