<svg width="125" height="30" viewBox="0 0 125 30" fill="none" xmlns="http://www.w3.org/2000/svg">
<path d="M27.0576 10.53C27.42 10.53 27.5408 10.66 27.5408 11.01V18.93H31.6384C31.9908 18.93 32.1217 19.06 32.1217 19.41V20.11C32.1217 20.46 31.9908 20.59 31.6384 20.59H26.2421C25.8897 20.59 25.7488 20.46 25.7488 20.11V11.01C25.7488 10.66 25.8897 10.53 26.2421 10.53H27.0576Z" fill="#696871"/>
<path fill-rule="evenodd" clip-rule="evenodd" d="M39.7229 10.3201C37.1656 10.3201 35.6957 11.7101 35.6957 14.0201V17.1001C35.6957 19.4101 37.1757 20.8001 39.7229 20.8001C42.27 20.8001 43.75 19.4101 43.75 17.1001V14.0201C43.75 11.7101 42.2801 10.3201 39.7229 10.3201ZM39.7732 12.02C41.2431 12.02 42.0586 12.72 42.0586 14.02V17.12C42.0586 18.4 41.2431 19.12 39.7732 19.12C38.3033 19.12 37.4978 18.43 37.4978 17.12V14.02C37.4978 12.73 38.3033 12.02 39.7732 12.02Z" fill="#696871"/>
<path d="M55.7408 15.08C56.1334 15.08 56.224 15.21 56.224 15.56V17.46C56.2456 18.3665 55.8533 19.234 55.1568 19.82C54.3028 20.4955 53.2259 20.8307 52.1365 20.76C49.5289 20.76 48.1094 19.37 48.1094 17.06V13.96C48.1094 11.68 49.5793 10.28 52.1365 10.28C54.1501 10.28 55.4589 11.07 56.0126 12.65C56.0754 12.7704 56.0774 12.9131 56.0179 13.0352C55.9585 13.1572 55.8446 13.2442 55.7106 13.27L54.9253 13.54C54.583 13.66 54.442 13.59 54.3212 13.24C53.9781 12.3613 53.0784 11.8259 52.1365 11.94C50.6565 11.94 49.8511 12.65 49.8511 13.94V17.12C49.8511 18.43 50.6666 19.12 52.1365 19.12C53.6064 19.12 54.5125 18.45 54.5125 17.47V16.73H52.3278C51.9653 16.73 51.8345 16.59 51.8345 16.24V15.56C51.8345 15.21 51.9653 15.08 52.3278 15.08H55.7408Z" fill="#696871"/>
<path fill-rule="evenodd" clip-rule="evenodd" d="M64.4092 10.3201C61.852 10.3201 60.3821 11.7101 60.3821 14.0201V17.1001C60.3821 19.4101 61.862 20.8001 64.4092 20.8001C66.9563 20.8001 68.4363 19.4101 68.4363 17.1001V14.0201C68.4363 11.7101 66.9664 10.3201 64.4092 10.3201ZM64.4595 12.02C65.9194 12.02 66.7349 12.72 66.7349 14.02V17.12C66.7349 18.4 65.9294 19.12 64.4595 19.12C62.9896 19.12 62.1742 18.43 62.1742 17.12V14.02C62.1742 12.73 62.9997 12.02 64.4595 12.02Z" fill="#696871"/>
<path d="M73.1782 10.82C73.1782 10.6 73.2487 10.53 73.4704 10.53H73.9339C74.1556 10.53 74.206 10.6 74.206 10.82V20.3C74.206 20.52 74.206 20.59 73.9339 20.59H73.4704C73.2487 20.59 73.1782 20.52 73.1782 20.3V10.82Z" fill="#696871"/>
<path fill-rule="evenodd" clip-rule="evenodd" d="M86.5382 13.67C86.5382 11.9359 85.1228 10.53 83.3769 10.53H79.6216C79.4102 10.53 79.3297 10.6 79.3297 10.82V20.3C79.3297 20.52 79.4102 20.59 79.6216 20.59H80.0948C80.3062 20.59 80.3566 20.52 80.3566 20.3V16.81H83.3769C85.1228 16.81 86.5382 15.4042 86.5382 13.67ZM85.187 14.73C84.7949 15.4045 84.0703 15.82 83.2862 15.82H80.2659V11.46H83.2862C84.0703 11.46 84.7949 11.8755 85.187 12.55C85.579 13.2245 85.579 14.0555 85.187 14.73Z" fill="#696871"/>
<path d="M94.401 10.33C95.9972 10.155 97.5198 11.0413 98.1462 12.51C98.2268 12.67 98.1462 12.8 97.9852 12.88L97.5422 13.08C97.361 13.15 97.2905 13.14 97.1797 12.95C96.7117 11.8608 95.5879 11.1975 94.401 11.31C92.6996 11.31 91.7733 11.98 91.7733 13.18C91.7529 13.9383 92.2986 14.5955 93.0519 14.72C93.5934 14.8954 94.1549 15.0029 94.7232 15.04C95.4112 15.0765 96.0898 15.2146 96.7368 15.45C97.759 15.7713 98.4145 16.7604 98.3073 17.82C98.3073 19.69 96.9381 20.82 94.4212 20.82C92.72 21.0133 91.1138 20.0011 90.5652 18.39C90.5292 18.3178 90.5276 18.2335 90.5607 18.16C90.5938 18.0865 90.6582 18.0315 90.7363 18.01L91.1793 17.85C91.2499 17.8214 91.3293 17.8235 91.3982 17.8558C91.4671 17.8881 91.5192 17.9477 91.5418 18.02C92.0039 19.1793 93.1689 19.9076 94.4212 19.82C96.324 19.82 97.2603 19.16 97.2603 17.82C97.2969 17.0926 96.7987 16.4455 96.0823 16.29C95.5614 16.1357 95.0242 16.0417 94.4816 16.01L93.3942 15.87C93.054 15.7983 92.7179 15.7081 92.3875 15.6C92.0611 15.5021 91.7569 15.3425 91.4914 15.13C90.9508 14.6437 90.6557 13.9439 90.686 13.22C90.7565 11.47 92.0754 10.33 94.401 10.33Z" fill="#696871"/>
<path d="M103.734 17.17C103.823 18.638 105.047 19.7834 106.528 19.7834C108.008 19.7834 109.233 18.638 109.322 17.17V10.82C109.322 10.6 109.392 10.53 109.614 10.53H110.077C110.298 10.53 110.369 10.6 110.369 10.82V17.16C110.369 19.43 109.02 20.8 106.533 20.8C104.046 20.8 102.697 19.43 102.697 17.16V10.82C102.697 10.6 102.767 10.53 102.979 10.53H103.452C103.663 10.53 103.734 10.6 103.734 10.82V17.17Z" fill="#696871"/>
<path d="M124.262 10.5301C124.484 10.5301 124.554 10.6001 124.554 10.8201V20.3001C124.554 20.5201 124.484 20.5901 124.262 20.5901H123.839C123.628 20.5901 123.557 20.5201 123.557 20.3001V14.5301C123.557 13.6905 123.614 12.8519 123.729 12.0201H123.668C123.354 12.7808 122.987 13.5192 122.571 14.2301L120.406 18.0201C120.352 18.1547 120.22 18.2421 120.074 18.2401H119.792C119.644 18.2408 119.51 18.1544 119.45 18.0201L117.255 14.1901C116.865 13.4893 116.529 12.7606 116.248 12.0101H116.188C116.291 12.8496 116.345 13.6943 116.349 14.5401V20.3001C116.349 20.5201 116.278 20.5901 116.057 20.5901H115.664C115.443 20.5901 115.372 20.5201 115.372 20.3001V10.8201C115.372 10.6001 115.443 10.5301 115.664 10.5301H116.027C116.196 10.5143 116.358 10.6065 116.429 10.7601L119.953 16.9801L123.457 10.8201C123.567 10.6101 123.628 10.5801 123.849 10.5801L124.262 10.5301Z" fill="#696871"/>
<path fill-rule="evenodd" clip-rule="evenodd" d="M2.47209 1.51008V21.8201C2.47209 22.0694 2.37238 22.3085 2.1949 22.4848C2.01742 22.661 1.77671 22.7601 1.52571 22.7601H1.30422C0.781554 22.7601 0.357849 22.3392 0.357849 21.8201V1.51008C0.363368 0.99484 0.785461 0.580049 1.30422 0.580078H1.52571C2.04447 0.580049 2.46657 0.99484 2.47209 1.51008ZM14.0806 14.3848C14.2804 14.1957 14.5496 14.0964 14.8252 14.1101L14.7749 14.1301C15.0679 14.1004 15.3592 14.1996 15.5723 14.4016C15.7853 14.6036 15.8986 14.8881 15.8823 15.1801V20.6801C15.8823 21.26 15.4091 21.7301 14.8252 21.7301C14.2414 21.7301 13.7681 21.26 13.7681 20.6801V15.1101C13.7678 14.836 13.8807 14.5738 14.0806 14.3848ZM17.1006 17.2801C17.1006 16.7278 17.5513 16.2801 18.1074 16.2801C18.3987 16.2535 18.6872 16.3541 18.8979 16.5557C19.1086 16.7573 19.2206 17.0399 19.2047 17.3301V18.5401C19.2047 19.1172 18.7337 19.5851 18.1527 19.5851C17.5716 19.5851 17.1006 19.1172 17.1006 18.5401V17.2801ZM9.14704 25.6001V18.3701C8.83221 18.6078 8.44495 18.7313 8.04965 18.7201C7.68704 18.7112 7.3358 18.5926 7.04287 18.3801V25.6001C7.04287 26.1773 7.5139 26.6451 8.09495 26.6451C8.676 26.6451 9.14704 26.1773 9.14704 25.6001ZM4.75748 21.11C4.39521 21.0992 4.04452 20.9808 3.75071 20.77V28.02C3.75071 28.5999 4.22399 29.07 4.80782 29.07C5.39165 29.07 5.86494 28.5999 5.86494 28.02V20.82C5.53618 21.0311 5.14828 21.1327 4.75748 21.11ZM11.4827 16.2502C11.1035 16.2476 10.7343 16.1288 10.4256 15.9102V23.1802C10.4256 23.7601 10.8989 24.2302 11.4827 24.2302C12.0665 24.2302 12.5398 23.7601 12.5398 23.1802V15.9202C12.2204 16.1565 11.8305 16.2797 11.4324 16.2702L11.4827 16.2502ZM4.86826 20.34H4.64677C4.1241 20.34 3.7004 19.9191 3.7004 19.4V3.93C3.70592 3.41476 4.12801 2.99997 4.64677 3H4.86826C5.38702 2.99997 5.80912 3.41476 5.81463 3.93V19.42C5.81463 19.9391 5.39093 20.36 4.86826 20.36V20.34ZM7.9691 17.9601H8.20066C8.71777 17.9601 9.13697 17.5438 9.13697 17.0301V6.33014C9.137 5.81487 8.71939 5.39562 8.20066 5.39014H7.9691C7.71903 5.39012 7.47933 5.48948 7.30345 5.66605C7.12757 5.84263 7.03011 6.08176 7.0328 6.33014V17.0301C7.0328 17.5438 7.452 17.9601 7.9691 17.9601ZM11.5331 15.5101H11.3216C10.8029 15.5101 10.3808 15.0953 10.3753 14.5801V8.82007C10.3585 8.56054 10.4508 8.30574 10.6301 8.11625C10.8095 7.92677 11.0598 7.81954 11.3216 7.82007H11.5431C12.0658 7.82007 12.4895 8.24092 12.4895 8.76007V14.5601C12.4922 14.8111 12.3937 15.0528 12.2159 15.2312C12.0381 15.4097 11.7959 15.5101 11.5431 15.5101H11.5331ZM14.6541 13.36H14.8756H14.8857C15.4044 13.3545 15.822 12.9353 15.822 12.42V10.93C15.8165 10.4148 15.3944 9.99997 14.8756 10H14.6541C14.1354 9.99997 13.7133 10.4148 13.7077 10.93V12.42C13.7077 12.9391 14.1314 13.36 14.6541 13.36Z" fill="#696871"/>
</svg>
