<svg width="120" height="28" viewBox="0 0 120 28" fill="none" xmlns="http://www.w3.org/2000/svg">
<path fill-rule="evenodd" clip-rule="evenodd" d="M71.3595 7.20155C70.7891 7.45261 70.4275 8.02059 70.4437 8.64005V8.66005C70.44 9.06696 70.6073 9.45697 70.9055 9.73605C71.2037 10.0151 71.6056 10.1579 72.0143 10.13C72.638 10.1177 73.1927 9.73286 73.419 9.15541C73.6453 8.57796 73.4986 7.92194 73.0475 7.49394C72.5964 7.06594 71.9299 6.95049 71.3595 7.20155ZM37.6529 7.89005H34.6326V20.02H37.6529V7.89005ZM43.5627 10.6501C40.7035 10.6501 38.851 12.4401 38.851 15.4401C38.851 18.4901 40.6632 20.2401 43.5627 20.2401C46.4623 20.2401 48.2745 18.4401 48.2745 15.4401C48.2745 12.4401 46.422 10.6501 43.5627 10.6501ZM45.244 15.4401C45.244 13.7901 44.5896 12.8201 43.5627 12.8201C42.5358 12.8201 41.8914 13.8201 41.8914 15.4401C41.8914 17.0601 42.5257 18.0401 43.5627 18.0401C44.5997 18.0401 45.244 17.1201 45.244 15.4501V15.4401ZM52.3116 20.61H49.4121V20.62C49.5832 22.28 51.2444 23.47 53.9124 23.47C56.7817 23.47 58.7248 22.11 58.7248 19.92V10.82H55.7045V12.49C55.2389 11.3848 54.131 10.6831 52.9258 10.73C50.6102 10.73 49.2208 12.54 49.2208 15.41C49.2208 18.28 50.6806 19.95 52.8855 19.95C54.0531 20.013 55.1416 19.3635 55.634 18.31H55.6944V19.99C55.6944 20.89 55.0903 21.51 53.9426 21.51C53.2584 21.6014 52.595 21.2353 52.3116 20.61ZM55.7045 15.43C55.7045 13.97 55.0299 13.05 53.9627 13.05C52.8956 13.05 52.2412 13.96 52.2412 15.43C52.2412 16.9 52.8855 17.73 53.9627 17.73C55.04 17.73 55.7045 16.92 55.7045 15.44V15.43ZM64.5742 10.6401C61.7149 10.6401 59.8625 12.4301 59.8625 15.4301V15.4401C59.8625 18.4901 61.6646 20.2301 64.5742 20.2301C67.4838 20.2301 69.296 18.4301 69.296 15.4301C69.296 12.4301 67.4335 10.6401 64.5742 10.6401ZM66.2555 15.4301C66.2555 13.7801 65.6011 12.8101 64.5742 12.8101C63.5473 12.8101 62.9533 13.8201 62.9533 15.4501C62.9533 17.0801 63.5876 18.0501 64.6145 18.0501C65.6414 18.0501 66.2555 17.1201 66.2555 15.4501V15.4301ZM70.4437 10.8401H73.4641V20.0201H70.4437V10.8401ZM80.7934 20.1401C83.0889 20.1401 84.4279 18.4301 84.4279 15.4301L84.4681 15.4501C84.4681 12.4501 83.0889 10.7301 80.7733 10.6901C79.5583 10.6363 78.4394 11.3439 77.9744 12.4601H77.914V10.8201H74.8937V22.9601H77.914V18.4401H77.9744C78.462 19.5381 79.5877 20.217 80.7934 20.1401ZM81.4075 15.43C81.4075 13.97 80.733 13.04 79.6759 13.04C78.6187 13.04 77.9442 13.98 77.9341 15.43C77.9241 16.88 78.6187 17.81 79.6759 17.81C80.733 17.81 81.4075 16.9 81.4075 15.45V15.43ZM93.7104 13.7001C93.6399 11.8101 92.1197 10.6301 89.6128 10.6301V10.6501C87.116 10.6501 85.4951 11.8201 85.4749 13.6201C85.4749 15.0201 86.4213 15.9701 88.2234 16.3401L89.9652 16.7101C90.6901 16.8601 90.972 16.9601 90.972 17.4401C90.972 17.9201 90.5692 18.2101 89.6833 18.2101C88.7973 18.2101 88.2536 17.8101 88.163 17.1301H85.2534C85.3843 19.0001 87.0656 20.2201 89.6329 20.2201C92.2002 20.2201 93.9419 19.0001 93.9419 17.1001C93.9419 15.7101 93.1567 14.9701 91.3143 14.5801L89.3812 14.1901C88.7067 14.0501 88.3745 13.9001 88.3745 13.4301C88.3745 12.9601 88.747 12.6401 89.5826 12.6401C90.4182 12.6401 90.9619 13.0501 90.9619 13.7001H93.7104ZM104.02 20.0001H101.11V18.2901H101.05C100.72 19.473 99.6055 20.268 98.3718 20.2001C97.4433 20.2525 96.5375 19.9026 95.8887 19.2409C95.2399 18.5792 94.9117 17.6706 94.989 16.7501V10.8201H98.0093V16.0601C98.0093 17.1501 98.5731 17.7301 99.5094 17.7301C99.9536 17.731 100.377 17.5414 100.67 17.2099C100.963 16.8785 101.098 16.4375 101.04 16.0001V10.8201H104.06L104.02 20.0001ZM108.399 10.8201H105.48L105.429 20.0201H108.45V14.6101C108.404 14.2296 108.524 13.8478 108.78 13.5611C109.036 13.2743 109.403 13.1102 109.789 13.1101C110.614 13.1101 111.067 13.6101 111.067 14.5301V20.0201H113.937V14.5901C113.887 14.2143 114.004 13.8356 114.257 13.5518C114.51 13.268 114.874 13.1069 115.255 13.1101C116.101 13.1101 116.554 13.5701 116.554 14.5701V20.0201H119.575V13.7701C119.635 12.9467 119.34 12.1366 118.764 11.5415C118.188 10.9464 117.385 10.6223 116.554 10.6501C115.259 10.5948 114.091 11.4178 113.715 12.6501H113.655C113.454 11.4209 112.337 10.5507 111.087 10.6501C109.869 10.6277 108.789 11.4249 108.46 12.5901H108.399V10.8201Z" fill="#696871"/>
<path fill-rule="evenodd" clip-rule="evenodd" d="M24.1721 5.21997C24.9952 6.1919 25.6734 7.27633 26.1857 8.43997C26.932 10.1366 27.316 11.9685 27.3133 13.82C27.3078 21.2933 21.2156 27.3534 13.6916 27.37C11.9409 27.369 10.2072 27.0293 8.58721 26.37C7.43178 25.914 6.34713 25.2979 5.36552 24.54C1.19038 21.3795 -0.784875 16.1174 0.288042 11.0134C1.36096 5.90944 5.29111 1.87201 10.3906 0.635046C15.4901 -0.601916 20.8515 1.18173 24.1721 5.21997ZM18.2322 4.00999C16.8068 3.35113 15.2537 3.00983 13.6815 3.00999L13.6916 2.98999C9.96353 2.98723 6.49396 4.88177 4.49866 8.00974C2.50337 11.1377 2.26058 15.0629 3.85536 18.41C4.31012 17.9355 4.59035 17.3224 4.65072 16.67C5.01689 14.1574 7.00398 12.1837 9.5336 11.82C10.9608 11.6914 12.1006 10.5844 12.262 9.16999C12.6281 6.65741 14.6152 4.6837 17.1448 4.31999C17.5192 4.26335 17.8846 4.15916 18.2322 4.00999ZM5.47623 20.7123L5.47628 20.7123C5.55682 20.6412 5.63736 20.5701 5.7179 20.4901C6.61358 19.6275 7.18851 18.4889 7.34888 17.2601C7.4139 16.5693 7.72441 15.9241 8.22478 15.4401C8.70627 14.9422 9.35435 14.6364 10.047 14.5801C12.5767 14.2163 14.5638 12.2426 14.9299 9.73006C14.9735 9.00757 15.2856 8.3269 15.8058 7.82006C16.2992 7.33191 16.9535 7.03716 17.6482 6.99006C18.7798 6.83542 19.8351 6.33577 20.6686 5.56006C21.6176 6.34213 22.4217 7.28295 23.0446 8.34006C23.0063 8.39141 22.9624 8.43836 22.9137 8.48006C22.4331 8.98225 21.7859 9.29482 21.0914 9.36006C18.5586 9.7175 16.5684 11.6943 16.2085 14.2101C16.0623 15.6294 14.9298 16.75 13.5003 16.8901C10.9636 17.2509 8.96618 19.2227 8.58722 21.7401C8.53304 22.2288 8.36406 22.6981 8.0939 23.1101C7.06094 22.5009 6.1358 21.7273 5.35546 20.8201C5.39572 20.7834 5.43598 20.7479 5.47623 20.7123ZM10.6612 24.26C11.6432 24.5398 12.6599 24.6812 13.6815 24.68V24.63C17.0533 24.617 20.229 23.0539 22.2816 20.3968C24.3342 17.7398 25.0323 14.2884 24.1722 11.05C23.4078 11.5868 22.5231 11.9301 21.5948 12.05C20.1692 12.1945 19.0421 13.3141 18.8966 14.73C18.5293 17.2458 16.5372 19.2204 14.0037 19.58C12.5781 19.7245 11.451 20.8441 11.3055 22.26C11.2155 22.9602 10.9971 23.6381 10.6612 24.26Z" fill="#696871"/>
</svg>
