<svg width="128" height="30" viewBox="0 0 128 30" fill="none" xmlns="http://www.w3.org/2000/svg">
<path fill-rule="evenodd" clip-rule="evenodd" d="M76.1244 8.33584C75.5102 8.61188 75.1267 9.23103 75.1555 9.89998L75.1756 9.90998C75.1808 10.3326 75.3563 10.7355 75.6628 11.0286C75.9693 11.3217 76.3812 11.4807 76.8066 11.47C77.4807 11.4694 78.0867 11.0618 78.3376 10.4403C78.5885 9.81887 78.4338 9.10833 77.9469 8.64532C77.4599 8.1823 76.7385 8.0598 76.1244 8.33584ZM39.888 9.07998H36.6562V22.08H39.888V9.07998ZM46.2104 12.04C43.1901 12.04 41.1765 13.97 41.1765 17.19C41.1765 20.48 43.1196 22.36 46.2104 22.36C49.3013 22.36 51.2443 20.41 51.2443 17.19C51.2443 13.97 49.2308 12.04 46.2104 12.04ZM48.0428 17.1899C48.0428 15.4199 47.3482 14.3799 46.2407 14.3799C45.1333 14.3799 44.4486 15.3799 44.4486 17.1899C44.4486 18.9999 45.1333 19.9899 46.2407 19.9899C47.3482 19.9899 48.063 18.9999 48.063 17.1999L48.0428 17.1899ZM55.6541 22.75H52.5331L52.5532 22.76C52.7345 24.55 54.5265 25.82 57.3254 25.83C60.4061 25.83 62.5002 24.36 62.5002 22.01V12.27H59.2987V13.8827C58.752 12.7958 57.6042 12.1243 56.3689 12.19C53.8419 12.19 52.3418 14.11 52.3418 17.19C52.3418 20.27 53.9124 22.06 56.2783 22.06C57.5447 22.1521 58.7381 21.4657 59.2886 20.3309V22.11C59.2886 23.09 58.6442 23.75 57.4059 23.75C56.6623 23.8447 55.9461 23.4358 55.6541 22.75ZM59.2987 17.1899C59.2987 15.6199 58.5739 14.6299 57.4261 14.6299C56.2784 14.6299 55.5737 15.6299 55.5737 17.1899C55.5737 18.7499 56.2683 19.6699 57.4261 19.6699C58.5839 19.6699 59.2987 18.8199 59.2987 17.1899ZM68.8127 12.04C65.7923 12.04 63.7788 13.97 63.7788 17.19H63.7989C63.7989 20.48 65.7319 22.36 68.8127 22.36C71.8934 22.36 73.8466 20.41 73.8466 17.19C73.8466 13.97 71.833 12.04 68.8127 12.04ZM70.645 17.1899C70.645 15.4199 69.9402 14.3799 68.8428 14.3799C67.7454 14.3799 67.0508 15.3799 67.0508 17.1899C67.0508 18.9999 67.7354 19.9899 68.8428 19.9899C69.9503 19.9899 70.6651 18.9999 70.6651 17.1999L70.645 17.1899ZM75.1554 12.26H78.4274V22.12H75.2057L75.1554 12.26ZM86.2803 22.26C88.7469 22.26 90.1967 20.4 90.1967 17.19L90.2571 17.2C90.2571 13.98 88.7973 12.13 86.2602 12.15C84.951 12.0881 83.7431 12.8479 83.2399 14.05H83.1794V12.29H79.9678V25.29H83.1996V20.43H83.26C83.781 21.6086 84.9869 22.3392 86.2803 22.26ZM86.9046 17.1899C86.9046 15.6299 86.1696 14.6199 85.0319 14.6199C83.8943 14.6199 83.1795 15.6199 83.1694 17.1899C83.1593 18.7599 83.8943 19.7499 85.0319 19.7499C86.1696 19.7499 86.965 18.8199 86.965 17.1999L86.9046 17.1899ZM100.124 15.34C100.103 13.3 98.4221 12.03 95.7139 12.03L95.7743 12.04C93.0459 12.04 91.3546 13.29 91.2942 15.25C91.2942 16.76 92.311 17.77 94.2541 18.18L96.1267 18.57C96.9019 18.73 97.2039 18.82 97.2039 19.35C97.2039 19.88 96.761 20.18 95.8146 20.18C94.8682 20.18 94.2843 19.75 94.1937 19.02H91.0626C91.1935 21.03 92.9956 22.35 95.7643 22.35C98.5329 22.35 100.395 20.99 100.395 18.99C100.395 17.5 99.59 16.7 97.5765 16.28L95.5025 15.86C94.7575 15.71 94.385 15.55 94.385 15.04C94.385 14.53 94.8078 14.19 95.6938 14.19C96.5797 14.19 97.1737 14.63 97.1737 15.34H100.124ZM111.218 22.11H108.087V20.26H108.027C107.666 21.5311 106.465 22.3831 105.137 22.31C104.153 22.3418 103.202 21.9548 102.523 21.2462C101.844 20.5376 101.502 19.5748 101.583 18.6V12.27H104.815V17.91C104.815 19.07 105.429 19.7 106.436 19.7C106.914 19.6964 107.367 19.4874 107.678 19.1268C107.989 18.7663 108.127 18.2896 108.057 17.82V12.27H111.279L111.218 22.11ZM115.92 12.2601H112.779L112.799 22.1201H116.031V16.3001C115.978 15.8907 116.107 15.4789 116.383 15.1704C116.658 14.8619 117.055 14.6868 117.47 14.6901C118.356 14.6901 118.85 15.2201 118.85 16.2201V22.1201H121.93V16.2801C121.875 15.8754 121.999 15.4666 122.272 15.161C122.545 14.8554 122.939 14.6833 123.35 14.6901C124.266 14.6901 124.739 15.2501 124.739 16.2501V22.1201H127.991V15.4301C128.058 14.544 127.741 13.6718 127.12 13.0322C126.499 12.3926 125.633 12.0463 124.739 12.0801C123.372 12.0165 122.133 12.8741 121.719 14.1701H121.578C121.339 12.8709 120.144 11.9657 118.819 12.0801C117.51 12.0536 116.347 12.9083 115.99 14.1601H115.92V12.2601Z" fill="#696871"/>
<path fill-rule="evenodd" clip-rule="evenodd" d="M30.2632 9.92994C30.2634 5.85634 27.7464 2.20021 23.9246 0.722463C20.1027 -0.755281 15.7595 0.248336 12.9868 3.24994H0.422241V29.5899H26.9509V17.2799C29.0568 15.4091 30.2613 12.7362 30.2632 9.92994ZM25.1588 9.92987C25.1629 11.8803 23.9831 13.6409 22.1701 14.3901C20.3571 15.1393 18.2683 14.7294 16.8783 13.3517C15.4884 11.9739 15.0714 9.89999 15.8219 8.09766C16.5724 6.29532 18.3425 5.11988 20.3061 5.11987C22.9822 5.11987 25.1532 7.27177 25.1588 9.92987ZM5.52651 24.5198H21.8464V19.6898C21.3372 19.7736 20.8221 19.8171 20.306 19.8198C14.8092 19.8143 10.3545 15.3896 10.349 9.92982C10.3534 9.38988 10.4039 8.85128 10.5 8.31982H5.52651V24.5198Z" fill="#696871"/>
</svg>
