<svg width="102" height="48" viewBox="0 0 102 48" fill="none" xmlns="http://www.w3.org/2000/svg">
<path d="M0.596008 28.6101H3.61635V43.3201H0.596008V28.6101Z" fill="#696871"/>
<path fill-rule="evenodd" clip-rule="evenodd" d="M8.67993 33.3394C6.67131 34.1691 5.36403 36.1194 5.3681 38.2801C5.35447 39.6995 5.91685 41.0646 6.92834 42.0675C7.93984 43.0703 9.31526 43.6263 10.7443 43.6101C12.9197 43.6101 14.8807 42.3079 15.7122 40.3113C16.5438 38.3147 16.0819 36.017 14.5423 34.4906C13.0026 32.9642 10.6886 32.5098 8.67993 33.3394ZM10.7051 36.0204C11.9869 35.9986 13.0469 37.0071 13.08 38.28C13.114 38.9105 12.881 39.5263 12.4373 39.9784C11.9936 40.4305 11.3797 40.6777 10.7443 40.66C9.46227 40.6596 8.4202 39.6329 8.40943 38.3595C8.39866 37.0862 9.42322 36.0422 10.7051 36.0204Z" fill="#696871"/>
<path fill-rule="evenodd" clip-rule="evenodd" d="M28.2622 42.8201V33.24L25.2922 33.27V34.27C24.5689 33.3939 23.4717 32.9083 22.3323 32.96C19.4854 32.96 17.1776 35.2524 17.1776 38.08C17.1776 40.9077 19.4854 43.2 22.3323 43.2C23.4727 43.2566 24.572 42.7701 25.2922 41.89V42.8201C25.3507 43.4381 25.117 44.0481 24.6595 44.471C24.2021 44.894 23.5729 45.0821 22.9565 44.9801C22.0107 45.0578 21.113 44.5544 20.6912 43.71L18.0937 45.2C19.109 46.8415 20.9618 47.7829 22.8961 47.64C25.5942 47.64 28.2622 46.2101 28.2622 42.8201ZM23.8476 35.7558C24.7615 36.1652 25.3333 37.0851 25.2922 38.0801C25.3109 38.7239 25.0546 39.3455 24.5865 39.7914C24.1185 40.2372 23.4825 40.4656 22.8357 40.4201C21.8331 40.4193 20.9317 39.8134 20.5581 38.8893C20.1845 37.9652 20.4138 36.9083 21.1374 36.219C21.861 35.5298 22.9337 35.3464 23.8476 35.7558Z" fill="#696871"/>
<path fill-rule="evenodd" clip-rule="evenodd" d="M33.3158 33.3394C31.3072 34.1691 29.9999 36.1194 30.004 38.2801C29.9903 39.6995 30.5527 41.0646 31.5642 42.0675C32.5757 43.0703 33.9511 43.6263 35.3802 43.6101C37.5556 43.6101 39.5165 42.3079 40.3481 40.3113C41.1796 38.3147 40.7178 36.017 39.1781 34.4906C37.6385 32.9642 35.3244 32.5098 33.3158 33.3394ZM35.3409 36.0204C36.6228 35.9986 37.6827 37.0071 37.7159 38.28H37.6958C37.7294 38.9069 37.4991 39.5195 37.0598 39.971C36.6206 40.4224 36.0121 40.672 35.3802 40.66C34.0981 40.6596 33.0561 39.6329 33.0453 38.3595C33.0345 37.0862 34.0591 36.0422 35.3409 36.0204Z" fill="#696871"/>
<path fill-rule="evenodd" clip-rule="evenodd" d="M43.9882 28.72C42.9762 28.72 42.1558 29.5348 42.1558 30.54C42.1613 31.5429 42.9785 32.3545 43.9882 32.36C45.0001 32.36 45.8205 31.5451 45.8205 30.54C45.8205 29.5348 45.0001 28.72 43.9882 28.72ZM45.4883 33.24H42.468V43.32H45.4883V33.24Z" fill="#696871"/>
<path fill-rule="evenodd" clip-rule="evenodd" d="M57.3521 41.9458C58.2612 40.9452 58.7308 39.6258 58.6568 38.28C58.728 36.9359 58.2572 35.619 57.3484 34.6206C56.4396 33.6222 55.1678 33.0246 53.8142 32.96C52.6738 32.9056 51.5677 33.356 50.7939 34.19V33.24H47.7736V47.38H50.7939V42.38C51.5677 43.2139 52.6738 43.6644 53.8142 43.61C55.1696 43.5454 56.443 42.9464 57.3521 41.9458ZM53.2006 35.9408C54.5191 35.9297 55.6031 36.9706 55.6365 38.2799H55.6164C55.6642 38.9422 55.4216 39.5928 54.9508 40.0642C54.48 40.5357 53.827 40.782 53.1598 40.7399C51.8417 40.7067 50.7937 39.6301 50.8048 38.3204C50.816 37.0108 51.8821 35.9518 53.2006 35.9408Z" fill="#696871"/>
<path d="M68.0602 40.3001C68.0602 42.6201 66.0467 43.6101 63.8318 43.6101C62.0216 43.7692 60.2958 42.8192 59.4724 41.2101L62.1102 39.7201C62.3308 40.4696 63.0475 40.965 63.8318 40.9101C64.5667 40.9101 64.9292 40.6801 64.9292 40.2801C64.9292 39.1701 59.8953 39.7601 59.8953 36.2801C59.8953 34.0801 61.7679 32.9701 63.9224 32.9701C65.5414 32.9212 67.0598 33.748 67.8891 35.1301L65.2413 36.5101C65.0023 35.9705 64.4655 35.6216 63.872 35.6201C63.3485 35.6201 63.0263 35.8201 63.0263 36.1901C63.0666 37.3401 68.0602 36.5701 68.0602 40.3001Z" fill="#696871"/>
<path d="M79.1751 33.24V43.32H76.1547V42.38C75.442 43.2272 74.3642 43.6844 73.2552 43.61C71.2417 43.61 69.4597 42.16 69.4597 39.43V33.24H72.48V38.99C72.4262 39.4862 72.6001 39.9802 72.9534 40.335C73.3068 40.6899 73.8021 40.868 74.3023 40.82C75.4097 40.82 76.1849 40.18 76.1849 38.75V33.24H79.1751Z" fill="#696871"/>
<path d="M96.6326 37.14V43.32H93.6123V37.4C93.6123 36.4 93.119 35.74 92.1525 35.74C91.1859 35.74 90.5617 36.45 90.5617 37.64V43.32H87.5414V37.4C87.5414 36.4 87.0581 35.74 86.0816 35.74C85.105 35.74 84.5009 36.45 84.5009 37.64V43.32H81.4806V33.24H84.5009V34.17C85.1423 33.3355 86.1653 32.8801 87.2192 32.96C88.2789 32.909 89.2878 33.4138 89.8771 34.29C90.562 33.3746 91.672 32.8724 92.8169 32.96C95.1124 32.96 96.6326 34.62 96.6326 37.14Z" fill="#696871"/>
<path d="M99.21 33.18C100.456 33.18 101.465 32.1771 101.465 30.94C101.465 29.7028 100.456 28.7 99.21 28.7C97.9645 28.7 96.9548 29.7028 96.9548 30.94C96.9548 32.1771 97.9645 33.18 99.21 33.18Z" fill="#696871"/>
<path d="M34.7761 20.98C40.6089 20.98 45.3373 16.2835 45.3373 10.49C45.3373 4.69653 40.6089 0 34.7761 0C28.9434 0 24.215 4.69653 24.215 10.49C24.215 16.2835 28.9434 20.98 34.7761 20.98Z" fill="#696871"/>
<path d="M58.3851 20.98C64.2178 20.98 68.9462 16.2835 68.9462 10.49C68.9462 4.69653 64.2178 0 58.3851 0C52.5523 0 47.824 4.69653 47.824 10.49C47.824 16.2835 52.5523 20.98 58.3851 20.98Z" fill="#696871"/>
<rect x="0.616577" width="21.1122" height="20.97" fill="#696871"/>
</svg>
