<svg width="201" height="41" viewBox="0 0 201 41" fill="none" xmlns="http://www.w3.org/2000/svg">
<path d="M30.0402 18.1927C28.9075 19.3279 28.3415 20.9068 28.496 22.5L28.4694 22.4735C28.6283 24.3484 27.9494 26.1976 26.6139 27.528C25.2784 28.8585 23.4221 29.5347 21.54 29.3765L21.5666 29.4029C19.2879 29.1917 17.1209 30.4264 16.1484 32.4902C15.176 34.5539 15.6069 37.0035 17.2259 38.6148C18.8448 40.2262 21.3042 40.6532 23.375 39.6826C25.4458 38.712 26.6833 36.5522 26.4692 34.2824L26.4972 34.3088C26.3383 32.434 27.0172 30.5847 28.3527 29.2543C29.6882 27.9239 31.5446 27.2476 33.4266 27.4059L33.3986 27.3794C35.9029 27.6038 38.2333 26.0826 39.0265 23.7056C39.8197 21.3287 38.8675 18.7204 36.7267 17.4064C34.586 16.0925 31.8191 16.418 30.0446 18.1927H30.0402Z" fill="#5454D4"/>
<path d="M19.15 25.9353L19.122 25.9088C20.7223 26.0695 22.3104 25.5057 23.4481 24.3732C24.5859 23.2407 25.153 21.659 24.9929 20.0647L25.021 20.0912C24.8621 18.2163 25.541 16.3671 26.8765 15.0367C28.212 13.7062 30.0684 13.03 31.9504 13.1882L31.9223 13.1618C34.2012 13.375 36.3696 12.1416 37.3435 10.0781C38.3174 8.01464 37.8878 5.56435 36.2693 3.95202C34.6508 2.3397 32.1911 1.91166 30.1197 2.88188C28.0483 3.8521 26.8102 6.01217 27.0242 8.28236L26.9976 8.25442C27.157 10.1294 26.4783 11.979 25.1427 13.3095C23.807 14.64 21.9504 15.3161 20.0682 15.1574L20.0948 15.1853C18.4945 15.0247 16.9064 15.5884 15.7686 16.7209C14.6309 17.8535 14.0638 19.4351 14.2238 21.0294L14.1973 21.0029C14.3556 22.8776 13.6766 24.7266 12.3412 26.0569C11.0058 27.3872 9.14975 28.0636 7.26786 27.9059L7.29443 27.9324C5.01554 27.7192 2.84719 28.9526 1.87325 31.016C0.899311 33.0795 1.32898 35.5298 2.94749 37.1421C4.566 38.7544 7.02569 39.1825 9.09707 38.2122C11.1684 37.242 12.4066 35.082 12.1926 32.8118L12.2206 32.8382C12.0617 30.9634 12.7406 29.1142 14.0761 27.7837C15.4116 26.4533 17.268 25.777 19.15 25.9353V25.9353Z" fill="#FF7143"/>
<path d="M9.25634 22.9838C10.3892 21.8488 10.9548 20.2695 10.799 18.6765L10.827 18.7029C10.6681 16.8276 11.3473 14.9778 12.6835 13.6472C14.0197 12.3167 15.8769 11.6408 17.7594 11.8L17.7314 11.7735C20.0095 11.9861 22.1768 10.7529 23.1501 8.69004C24.1235 6.62724 23.6938 4.17791 22.0759 2.56618C20.458 0.954447 17.9993 0.526442 15.9286 1.49607C13.8578 2.4657 12.6198 4.62473 12.8332 6.89412L12.8067 6.86765C12.9655 8.74248 12.2867 10.5917 10.9512 11.9222C9.61563 13.2526 7.75928 13.9289 5.87726 13.7706L5.90383 13.7971C3.39956 13.5733 1.06973 15.0949 0.276973 17.4719C-0.515783 19.8488 0.436777 22.4568 2.57753 23.7705C4.71828 25.0841 7.48491 24.7584 9.2593 22.9838H9.25634Z" fill="#5454D4"/>
<path d="M54.9854 8.31618H59.3698V29.5706H54.9854V8.31618Z" fill="#19191B"/>
<path fill-rule="evenodd" clip-rule="evenodd" d="M66.6129 15.1418C63.7195 16.3459 61.8403 19.169 61.8528 22.2926C61.8376 24.3409 62.6498 26.3092 64.1067 27.7546C65.5635 29.2001 67.5426 30.0013 69.5986 29.9779C72.7343 29.9779 75.5606 28.0946 76.7577 25.2074C77.9547 22.3203 77.2863 18.999 75.0646 16.7947C72.8429 14.5903 69.5063 13.9378 66.6129 15.1418ZM69.5363 19.0359C71.3812 19.0019 72.9089 20.4552 72.96 22.2926C73.0098 23.2035 72.6749 24.0937 72.0364 24.7476C71.3979 25.4015 70.514 25.7596 69.5986 25.7353C67.7534 25.7354 66.2528 24.2544 66.2357 22.4163C66.2186 20.5783 67.6915 19.0698 69.5363 19.0359Z" fill="#19191B"/>
<path fill-rule="evenodd" clip-rule="evenodd" d="M94.8185 28.8368V15.0132L90.5507 15.0103V16.4956C89.5096 15.2266 87.9262 14.5244 86.2829 14.6029C82.2743 14.7289 79.0901 18.0025 79.0901 21.9978C79.0901 25.9931 82.2743 29.2667 86.2829 29.3926C87.9262 29.4712 89.5096 28.769 90.5507 27.5V28.8309C90.6241 29.709 90.2929 30.5727 89.6507 31.1785C89.0084 31.7843 88.1245 32.0665 87.2484 31.9456C85.8625 32.0865 84.5344 31.3555 83.9166 30.1118L80.1758 32.2662C81.6393 34.6416 84.3122 36.0036 87.1022 35.7956C90.9892 35.7956 94.8185 33.7279 94.8185 28.8368ZM88.4688 18.6356C89.7877 19.2281 90.6125 20.56 90.5522 22C90.5795 22.9298 90.2108 23.8278 89.5373 24.4722C88.8638 25.1165 87.9482 25.4471 87.0166 25.3824C85.5698 25.3841 84.2673 24.5093 83.7263 23.1725C83.1854 21.8358 83.5147 20.3056 84.5583 19.3073C85.6018 18.309 87.1499 18.043 88.4688 18.6356Z" fill="#19191B"/>
<path fill-rule="evenodd" clip-rule="evenodd" d="M102.062 15.1418C99.1681 16.3459 97.2889 19.169 97.3015 22.2926C97.2863 24.3409 98.0985 26.3092 99.5553 27.7546C101.012 29.2001 102.991 30.0013 105.047 29.9779C108.183 29.9779 111.009 28.0946 112.206 25.2074C113.403 22.3203 112.735 18.999 110.513 16.7947C108.292 14.5903 104.955 13.9378 102.062 15.1418ZM104.985 19.0359C106.83 19.0019 108.358 20.4552 108.409 22.2926C108.458 23.2035 108.124 24.0937 107.485 24.7476C106.847 25.4015 105.963 25.7596 105.047 25.7353C103.202 25.7354 101.701 24.2544 101.684 22.4163C101.667 20.5783 103.14 19.0698 104.985 19.0359Z" fill="#19191B"/>
<path fill-rule="evenodd" clip-rule="evenodd" d="M116.462 8.69066C115.479 9.09628 114.838 10.0518 114.838 11.1118C114.852 12.5531 116.021 13.718 117.468 13.7324C118.532 13.7324 119.491 13.0939 119.899 12.1146C120.306 11.1354 120.081 10.0082 119.328 9.25873C118.576 8.50925 117.445 8.28504 116.462 8.69066ZM119.666 15.0132H115.28L115.275 29.5721H119.666V15.0132Z" fill="#19191B"/>
<path fill-rule="evenodd" clip-rule="evenodd" d="M136.709 27.5823C138.02 26.1398 138.7 24.236 138.597 22.2926C138.701 20.349 138.021 18.4446 136.71 17.0016C135.399 15.5587 133.564 14.6964 131.612 14.6059C129.967 14.5165 128.369 15.1682 127.259 16.3809V15.0132H122.874V35.3941H127.259V28.2015C128.368 29.4151 129.967 30.0674 131.612 29.9779C133.563 29.887 135.398 29.0248 136.709 27.5823ZM130.678 18.9152C132.587 18.8834 134.165 20.391 134.213 22.2926C134.279 23.2377 133.937 24.166 133.273 24.8442C132.61 25.5225 131.687 25.8862 130.737 25.8441C128.827 25.8443 127.274 24.3108 127.258 22.4086C127.242 20.5064 128.769 18.947 130.678 18.9152Z" fill="#19191B"/>
<path d="M152.127 25.2029C152.127 28.5515 149.206 29.9779 146.049 29.9779C143.44 30.2134 140.951 28.8407 139.765 26.5132L143.563 24.3588C143.88 25.4424 144.914 26.1582 146.044 26.0765C147.095 26.0765 147.622 25.7559 147.622 25.175C147.622 23.5721 140.431 24.4176 140.431 19.3809C140.431 16.2059 143.121 14.6059 146.16 14.6059C148.487 14.5325 150.67 15.7258 151.858 17.7206L148.118 19.7294C147.782 18.9498 147.012 18.4455 146.16 18.4485C145.4 18.4485 144.932 18.7426 144.932 19.2632C144.938 20.9235 152.127 19.8162 152.127 25.2029Z" fill="#19191B"/>
<path d="M168.143 15.0132V29.5721H163.758V28.2029C162.732 29.4284 161.179 30.0892 159.581 29.9794C156.628 29.9794 154.119 27.8838 154.119 23.95V15.0132H158.503V23.3103C158.429 24.0121 158.668 24.7109 159.158 25.2208C159.648 25.7308 160.338 26.0002 161.045 25.9574C162.653 25.9574 163.763 25.0265 163.763 22.9588V15.0176L168.143 15.0132Z" fill="#19191B"/>
<path d="M193.283 20.6323V29.5706H188.898V21.0103C188.898 19.5544 188.197 18.6235 186.795 18.6235C185.333 18.6235 184.514 19.6426 184.514 21.3603V29.5706H180.131V21.0103C180.131 19.5544 179.43 18.6235 178.026 18.6235C176.565 18.6235 175.747 19.6426 175.747 21.3603V29.5706H171.362V15.0118H175.747V16.35C176.67 15.1437 178.145 14.4864 179.663 14.6044C181.189 14.53 182.643 15.2592 183.491 16.525C184.479 15.2017 186.079 14.4764 187.729 14.6044C191.085 14.6059 193.283 16.9926 193.283 20.6323Z" fill="#19191B"/>
<path d="M196.991 14.9235C198.788 14.9235 200.245 13.4724 200.245 11.6824C200.245 9.8923 198.788 8.44118 196.991 8.44118C195.194 8.44118 193.738 9.8923 193.738 11.6824C193.738 13.4724 195.194 14.9235 196.991 14.9235Z" fill="#19191B"/>
</svg>
